<?xml version="1.0" encoding="UTF-8"?>
<svg width="89px" height="100px" viewBox="0 0 89 100" version="1.1" xmlns="http://www.w3.org/2000/svg" xmlns:xlink="http://www.w3.org/1999/xlink">
    <!-- Generator: Sketch 46.2 (44496) - http://www.bohemiancoding.com/sketch -->
    <title>Node Logo</title>
    <desc>Created with Sketch.</desc>
    <defs></defs>
    <g id="SECTIONS-WEB---1440" stroke="none" stroke-width="1" fill="none" fill-rule="evenodd">
        <g id="CODE---WEB" transform="translate(-277.000000, -608.000000)" fill-rule="nonzero" fill="#539E43">
            <g id="LANGUAGES" transform="translate(248.000000, 539.000000)">
                <g id="Node.js" transform="translate(29.000000, 69.000000)">
                    <g id="Node-Logo">
                        <path d="M44.3729896,100 C42.9949465,100 41.7087728,99.6325213 40.5144686,98.9894346 L28.2958197,91.7317406 C26.4584283,90.7211755 27.3771244,90.3536971 27.9283411,90.1699579 C30.408819,89.3431328 30.8681666,89.1593929 33.4405144,87.6894801 C33.7161223,87.5057412 34.0836009,87.597611 34.3592096,87.7813498 L43.7299029,93.3853922 C44.0973816,93.5691314 44.5567291,93.5691314 44.8323381,93.3853922 L81.4882858,72.1635279 C81.8557645,71.9797881 82.0395033,71.6123104 82.0395033,71.1529626 L82.0395033,28.8011026 C82.0395033,28.3417542 81.8557645,27.9742764 81.4882858,27.7905375 L44.8323381,6.66054199 C44.4648593,6.47680311 44.0055119,6.47680311 43.7299029,6.66054199 L7.07395432,27.7905375 C6.70647653,27.9742764 6.52273762,28.433624 6.52273762,28.8011026 L6.52273762,71.1529626 C6.52273762,71.5204406 6.70647653,71.9797881 7.07395432,72.1635279 L17.087735,77.9513092 C22.5080384,80.707395 25.9072116,77.4919614 25.9072116,74.2765271 L25.9072116,32.4758838 C25.9072116,31.9246671 26.3665593,31.3734496 27.0096458,31.3734496 L31.6949929,31.3734496 C32.2462103,31.3734496 32.797427,31.8327972 32.797427,32.4758838 L32.797427,74.2765271 C32.797427,81.5342212 28.8470372,85.7602198 21.9568209,85.7602198 C19.8438216,85.7602198 18.19017,85.7602198 13.5048229,83.4634814 L3.85852083,77.9513092 C1.46991277,76.5732654 5.68434189e-14,74.0009185 5.68434189e-14,71.2448316 L5.68434189e-14,28.8929717 C5.68434189e-14,26.1368858 1.46991277,23.5645381 3.85852083,22.1864952 L40.5144686,0.964629807 C42.8112077,-0.32154327 45.9347722,-0.32154327 48.2315112,0.964629807 L84.8874589,22.1864952 C87.276067,23.5645381 88.7459798,26.1368858 88.7459798,28.8929717 L88.7459798,71.2448316 C88.7459798,74.0009185 87.276067,76.5732654 84.8874589,77.9513092 L48.2315112,99.1731735 C47.0372063,99.724391 45.6591636,100 44.3729896,100 L44.3729896,100 Z M55.6729441,70.877354 C39.5957734,70.877354 36.28847,63.5277901 36.28847,57.2806611 C36.28847,56.7294439 36.7478178,56.178227 37.3909041,56.178227 L42.168121,56.178227 C42.7193379,56.178227 43.1786853,56.5457047 43.1786853,57.0969222 C43.9136418,61.9660082 46.0266419,64.3546163 55.7648132,64.3546163 C63.4818554,64.3546163 66.7891588,62.6090949 66.7891588,58.4749653 C66.7891588,56.0863572 65.8704635,54.3408358 53.8355525,53.1465315 C43.8217727,52.1359665 37.574644,49.9310972 37.574644,41.9384471 C37.574644,34.497014 43.8217727,30.0872757 54.294901,30.0872757 C66.0542023,30.0872757 71.8419836,34.1295362 72.57694,42.9490121 C72.57694,43.2246207 72.4850702,43.5002297 72.3013314,43.7758383 C72.1175925,43.9595772 71.8419836,44.143316 71.566375,44.143316 L66.7891588,44.143316 C66.3298113,44.143316 65.8704635,43.7758383 65.7785937,43.3164905 C64.6761596,38.2636657 61.828203,36.6100133 54.294901,36.6100133 C45.8429024,36.6100133 44.8323381,39.549839 44.8323381,41.7547079 C44.8323381,44.418925 46.0266419,45.2457512 57.4184656,46.715664 C68.7184194,48.1855765 74.0468528,50.298576 74.0468528,58.1993563 C73.9549831,66.2838766 67.3403763,70.877354 55.6729441,70.877354 L55.6729441,70.877354 Z" id="Shape"></path>
                    </g>
                </g>
            </g>
        </g>
    </g>
</svg>